<svg xmlns="http://www.w3.org/2000/svg" viewBox="0 0 256 256"><defs><style>.cls-1{fill:#61b092;}</style></defs><title>fb-icon</title><g id="Layer_2" data-name="Layer 2"><g id="Layer_1-2" data-name="Layer 1"><path class="cls-1" d="M0,217.5Q0,128,0,38.5a7.78,7.78,0,0,0,.47-1.38C3,19.33,15.24,5.63,32.47,1.32c2-.5,4-.88,6-1.32h179a7.77,7.77,0,0,0,1.38.47c17.79,2.54,31.49,14.77,35.8,32,.5,2,.88,4,1.32,6v179a7.79,7.79,0,0,0-.47,1.38c-2.55,17.8-14.76,31.48-32,35.8-2,.5-4,.88-6,1.32H38.5a7.62,7.62,0,0,0-1.38-.47c-17.75-2.51-31.49-14.77-35.8-32C.82,221.54.44,219.51,0,217.5ZM88.09,103.85V133h24v74.85h29.13v-75h22.9l4-29.09h-27c0-7.15-.18-14,.06-20.8.19-5.18,3.1-7.84,8.28-8.11,2.83-.14,5.66-.06,8.49-.06h10V47.94c-8.31,0-16.46,0-24.61,0A31.37,31.37,0,0,0,112,79.24c0,7.25,0,14.49,0,21.74,0,.88-.07,1.77-.12,2.87Z"/></g></g></svg>