<svg xmlns="http://www.w3.org/2000/svg" viewBox="0 0 256 256"><defs><style>.cls-1{fill:#61b092;}</style></defs><title>ig-icon</title><g id="Layer_2" data-name="Layer 2"><g id="Layer_1-2" data-name="Layer 1"><path class="cls-1" d="M0,217.5Q0,128,0,38.5a7.78,7.78,0,0,0,.47-1.38C3,19.33,15.24,5.63,32.47,1.32c2-.5,4-.88,6-1.32h179a7.77,7.77,0,0,0,1.38.47c17.79,2.54,31.49,14.77,35.8,32,.5,2,.88,4,1.32,6v179a7.79,7.79,0,0,0-.47,1.38c-2.55,17.8-14.76,31.48-32,35.8-2,.5-4,.88-6,1.32H38.5a7.62,7.62,0,0,0-1.38-.47c-17.75-2.51-31.49-14.77-35.8-32C.82,221.54.44,219.51,0,217.5Zm208.06-89.42q0-24.87,0-49.74a30.17,30.17,0,0,0-30.49-30.4q-49.62,0-99.23,0a30.16,30.16,0,0,0-30.4,30.49q0,49.62,0,99.23a30.16,30.16,0,0,0,30.49,30.39q49.49,0,99,0c17.36,0,30.64-13.33,30.65-30.74Q208.07,152.7,208.06,128.08Z"/><path class="cls-1" d="M187.95,127.9q0,24.37,0,48.73,0,11.3-11.42,11.3H79.31c-7.41,0-11.25-3.83-11.25-11.23q0-48.73,0-97.47c0-7.36,3.86-11.18,11.3-11.18h97.22q11.35,0,11.37,11.35Q188,103.66,187.95,127.9Zm-19.89.09A40.06,40.06,0,1,0,128,168.06,40.17,40.17,0,0,0,168.06,128Zm10-40a10.06,10.06,0,1,0-9.88,10.1A10,10,0,0,0,178.06,88Z"/><path class="cls-1" d="M128,108.06a19.94,19.94,0,1,1-20,19.77A19.85,19.85,0,0,1,128,108.06Z"/></g></g></svg>