<svg xmlns="http://www.w3.org/2000/svg" viewBox="0 0 256 256"><defs><style>.cls-1{fill:#61b092;}</style></defs><title>tw-icon</title><g id="Layer_2" data-name="Layer 2"><g id="Layer_1-2" data-name="Layer 1"><path class="cls-1" d="M0,219Q0,128,0,37a21.86,21.86,0,0,0,1-2.74C4.91,17.34,15.28,6.53,31.83,1.54L37,0H219a21.76,21.76,0,0,0,2.74,1c16.92,3.89,27.73,14.26,32.72,30.81.52,1.72,1,3.45,1.54,5.17V219c-.37,1.08-.81,2.13-1.08,3.24q-6.15,24.92-30.75,32.22L219,256H37a21.72,21.72,0,0,0-2.74-1c-16.92-3.89-27.73-14.25-32.72-30.81C1,222.45.51,220.72,0,219ZM203.76,66.67l-1.17-.8-14.8,5.81c-2.68,1.05-4.73.61-7.13-1.41-11.91-10-28.27-10.93-40.73-2.14-11.86,8.37-16.27,20.12-14.29,35.13-27.56-1.82-49.47-14-67.19-34.56-8.87,13.3-6.8,25,7.88,44.2l-13.25-3.52c.93,16.08,9.2,26.44,23.45,33.06H64.91c2.16,7.05,5.62,12.65,11.26,16.08,5.37,3.27,11.48,5.35,17.42,8-12.76,9.31-27.74,12.95-45.19,12.91,2.08,1.46,2.82,2.08,3.64,2.53,18.76,10.15,38.76,14.12,59.83,10.76C159,185.22,192.19,146.43,193,98.59c0-2.12,1.41-4.53,2.84-6.23,3.63-4.3,7.64-8.27,11.5-12.37l-.83-.77-13,3.09Z"/></g></g></svg>