<svg xmlns="http://www.w3.org/2000/svg" viewBox="0 0 256 256"><defs><style>.cls-1{fill:#61b092;}</style></defs><title>yt-icon</title><g id="Layer_2" data-name="Layer 2"><g id="Layer_1-2" data-name="Layer 1"><path class="cls-1" d="M256,37V219c-.37,1.08-.81,2.13-1.08,3.24q-6.15,24.92-30.75,32.22L219,256H37a21.72,21.72,0,0,0-2.74-1c-16.92-3.89-27.73-14.25-32.72-30.81C1,222.45.51,220.72,0,219Q0,128,0,37a21.86,21.86,0,0,0,1-2.74C4.91,17.34,15.28,6.53,31.83,1.54L37,0H219a21.76,21.76,0,0,0,2.74,1c16.92,3.89,27.73,14.26,32.72,30.81C255,33.55,255.49,35.28,256,37ZM127.88,184.37l.05-1.29c12.33,0,24.66.23,37-.09a151.45,151.45,0,0,0,20.34-2.06c11.66-1.9,19.76-8.16,21.27-20.48a253,253,0,0,0-.06-64.75c-1.73-12.78-8.28-18.53-21.57-20.64A154.07,154.07,0,0,0,160.55,73c-27.31,0-54.63,0-81.91,1.09-20.82.81-28.51,7.94-29.87,28.45-1.19,17.88-.61,35.94.22,53.88.71,15.17,7.66,22.93,22.61,24.53C90.28,182.88,109.12,183.28,127.88,184.37Z"/><path class="cls-1" d="M113.24,152.33V103.69L152.11,128Z"/></g></g></svg>